<svg xmlns="http://www.w3.org/2000/svg" width="2212" height="2106" fill="none" viewBox="0 0 2212 2106">
  <path fill="#464646" fill-opacity=".2" d="M998.981 1652h517.999l-129.5 227-129.5 227-129.5-227-129.499-227ZM480 1652h518l-129.5 227L739 2106l-129.5-227L480 1652Zm1037.98 0h518l-129.5 227-129.5 227-129.5-227-129.5-227Z"/>
  <path fill="#464646" fill-opacity=".2" d="M1258 2102H739.996l129.5-227 129.5-227 129.504 227 129.5 227Zm519 0h-518l129.5-227 129.5-227 129.5 227 129.5 227Z"/>
  <path fill="#A4A4A4" fill-opacity=".2" d="M1030.71 1707.78h454.55l-113.64 199.11L1257.99 2106l-113.64-199.11-113.64-199.11Zm-518.982 0h454.545l-113.636 199.11L739.001 2106l-113.636-199.11-113.637-199.11Zm1037.982 0h454.54l-113.63 199.11L1776.98 2106l-113.63-199.11-113.64-199.11Z"/>
  <path fill="#A4A4A4" fill-opacity=".2" d="M1226.27 2046.22H771.723l113.636-199.11L998.995 1648l113.635 199.11 113.64 199.11Zm519 0h-454.55l113.64-199.11L1518 1648l113.63 199.11 113.64 199.11Z"/>
  <path fill="#757575" fill-opacity=".2" d="M1030.71 1707.78h391.09l-97.77 171.38-97.77 171.39-97.77-171.39-97.78-171.38Zm-518.98 0h391.09l-97.772 171.38-97.773 171.39-97.772-171.39-97.773-171.38Zm1037.98 0h391.09l-97.77 171.38-97.77 171.39-97.78-171.39-97.77-171.38Z"/>
  <path fill="#757575" fill-opacity=".2" d="M1226.27 2046.22H835.18l97.772-171.38 97.768-171.39 97.78 171.39 97.77 171.38Zm519 0h-391.09l97.77-171.38 97.77-171.39 97.78 171.39 97.77 171.38Z"/>
  <path fill="#000" fill-opacity=".2" d="M1096.11 1707.6h325.83l-81.46 142.78-81.46 142.79-81.45-142.79-81.46-142.78Zm-518.982 0h325.825l-81.456 142.78-81.456 142.79-81.457-142.79-81.456-142.78Zm1037.982 0h325.82l-81.45 142.78-81.46 142.79-81.46-142.79-81.45-142.78Zm-454.24 338.8H835.047l81.456-142.78 81.456-142.79 81.461 142.79 81.45 142.78Zm519 0h-325.82l81.45-142.78 81.46-142.79 81.46 142.79 81.45 142.78Z"/>
  <path fill="#000" fill-opacity=".2" d="M1242.91 1930.63a138.81 138.81 0 0 0 59.51-13.45l38.57-67.03 40.37-70.15c-2.62-32.41-16.47-62.89-39.17-86.14a139.089 139.089 0 0 0-45.43-30.95 138.788 138.788 0 0 0-53.85-10.91 138.8 138.8 0 0 0-53.86 10.91 139.194 139.194 0 0 0-45.43 30.95 139.368 139.368 0 0 0-35.61 64 139.733 139.733 0 0 0-4.19 33.46c.01 30.19 9.8 59.56 27.92 83.7a139.089 139.089 0 0 0 72.52 50.1c12.56 3.65 25.57 5.51 38.65 5.51Zm-518.984 0a138.81 138.81 0 0 0 59.516-13.45l38.57-67.03 40.367-70.15a139.405 139.405 0 0 0-39.166-86.14 139.105 139.105 0 0 0-45.434-30.95 138.77 138.77 0 0 0-53.853-10.91 138.773 138.773 0 0 0-53.853 10.91 139.126 139.126 0 0 0-45.434 30.95 139.359 139.359 0 0 0-35.605 64 139.485 139.485 0 0 0-4.194 33.46 139.483 139.483 0 0 0 27.918 83.7 139.091 139.091 0 0 0 72.524 50.1 138.468 138.468 0 0 0 38.644 5.51Zm1037.984 0a138.81 138.81 0 0 0 59.51-13.45l38.57-67.03 40.37-70.15c-2.62-32.41-16.47-62.89-39.17-86.14a139.089 139.089 0 0 0-45.43-30.95 138.788 138.788 0 0 0-53.85-10.91 138.8 138.8 0 0 0-53.86 10.91 139.194 139.194 0 0 0-45.43 30.95 139.368 139.368 0 0 0-35.61 64 139.733 139.733 0 0 0-4.19 33.46c.01 30.19 9.8 59.56 27.92 83.7a139.089 139.089 0 0 0 72.52 50.1c12.56 3.65 25.57 5.51 38.65 5.51Zm-747.84-107.26a138.81 138.81 0 0 0-59.516 13.45l-38.57 67.03-40.367 70.15a139.405 139.405 0 0 0 39.166 86.14 139.105 139.105 0 0 0 45.434 30.95 138.77 138.77 0 0 0 53.853 10.91c18.5-.01 36.8-3.72 53.85-10.91a139.13 139.13 0 0 0 45.44-30.95 139.3 139.3 0 0 0 35.6-64 139.24 139.24 0 0 0 4.2-33.46c-.01-30.19-9.81-59.56-27.92-83.7a139.114 139.114 0 0 0-72.53-50.1 138.372 138.372 0 0 0-38.64-5.51Zm519 0c-20.59.01-40.92 4.61-59.52 13.45l-38.57 67.03-40.36 70.15c2.62 32.41 16.47 62.89 39.16 86.14a139.13 139.13 0 0 0 45.44 30.95c17.05 7.19 35.35 10.9 53.85 10.91 18.5-.01 36.8-3.72 53.85-10.91a139.13 139.13 0 0 0 45.44-30.95 139.3 139.3 0 0 0 35.6-64 139.24 139.24 0 0 0 4.2-33.46c-.01-30.19-9.81-59.56-27.92-83.7a139.114 139.114 0 0 0-72.53-50.1 138.372 138.372 0 0 0-38.64-5.51Z"/>
  <path fill="#EAEAEA" fill-opacity=".2" d="M1106.84 1763.37h272.11a139.707 139.707 0 0 0-24.96-55.68H1131.8a139.614 139.614 0 0 0-23.95 50.29c-.37 1.79-.7 3.59-1.01 5.39Zm-518.977 0h272.102a139.57 139.57 0 0 0-24.953-55.68H612.815a139.528 139.528 0 0 0-23.941 50.29c-.372 1.79-.709 3.59-1.011 5.39Zm1037.977 0h272.11a139.707 139.707 0 0 0-24.96-55.68H1650.8a139.614 139.614 0 0 0-23.95 50.29c-.37 1.79-.7 3.59-1.01 5.39Zm-475.71 227.26H878.031a139.57 139.57 0 0 0 24.953 55.68h222.196a139.427 139.427 0 0 0 23.94-50.29c.37-1.79.71-3.59 1.01-5.39Zm519 0h-272.1a139.55 139.55 0 0 0 24.95 55.68h222.2a139.427 139.427 0 0 0 23.94-50.29c.37-1.79.71-3.59 1.01-5.39Z" opacity=".3"/>
  <path fill="#EAEAEA" fill-opacity=".2" d="M1106.71 1819.06h252.42l22.39-38.91a137.91 137.91 0 0 0-2.57-16.78h-272.1c-2.01 9.24-3.08 18.66-3.19 28.11.1 9.27 1.12 18.51 3.05 27.58Zm-518.981 0h252.423l22.391-38.91a139.892 139.892 0 0 0-2.571-16.78H587.87a139.848 139.848 0 0 0-3.189 28.11c.098 9.27 1.119 18.51 3.048 27.58Zm1037.981 0h252.42l22.39-38.91a137.91 137.91 0 0 0-2.57-16.78h-272.1c-2.01 9.24-3.08 18.66-3.19 28.11.1 9.27 1.12 18.51 3.05 27.58Zm-475.44 115.88H897.848l-22.391 38.91c.516 5.64 1.375 11.24 2.571 16.78h272.102c2.01-9.24 3.08-18.66 3.19-28.11-.1-9.27-1.12-18.51-3.05-27.58Zm519 0h-252.42l-22.39 38.91c.51 5.64 1.37 11.24 2.57 16.78h272.1c2.01-9.24 3.08-18.66 3.19-28.11-.1-9.27-1.12-18.51-3.05-27.58Z" opacity=".5"/>
  <path fill="#EAEAEA" fill-opacity=".2" d="M1131.75 1874.75h195.34l14.02-24.37 18.02-31.32h-252.42c4.14 20.19 12.69 39.2 25.04 55.69Zm-518.982 0H808.11l14.019-24.37 18.023-31.32H587.729a139.64 139.64 0 0 0 25.039 55.69Zm1037.982 0h195.34l14.02-24.37 18.02-31.32h-252.42c4.14 20.19 12.69 39.2 25.04 55.69Zm-525.52 4.5H929.89l-14.019 24.37-18.023 31.32h252.422a139.696 139.696 0 0 0-25.04-55.69Zm519 0h-195.34l-14.02 24.37-18.02 31.32h252.42a139.696 139.696 0 0 0-25.04-55.69Z" opacity=".7"/>
  <path fill="#EAEAEA" fill-opacity=".2" d="M1242.91 1930.96c20.61-.02 40.96-4.62 59.58-13.47l24.6-42.74h-195.35a139.28 139.28 0 0 0 72.48 50.69c12.57 3.65 25.59 5.51 38.69 5.52Zm-518.985 0a139.131 139.131 0 0 0 59.586-13.47l24.594-42.74H612.763a139.29 139.29 0 0 0 72.473 50.69 139.158 139.158 0 0 0 38.689 5.52Zm1037.985 0c20.61-.02 40.96-4.62 59.58-13.47l24.6-42.74h-195.35a139.28 139.28 0 0 0 72.48 50.69c12.57 3.65 25.59 5.51 38.69 5.52Zm-747.84-107.92a139.122 139.122 0 0 0-59.584 13.47l-24.595 42.74h195.339a139.295 139.295 0 0 0-72.47-50.69c-12.57-3.65-25.6-5.51-38.69-5.52Zm519 0c-20.61.02-40.96 4.62-59.58 13.47l-24.6 42.74h195.34a139.295 139.295 0 0 0-72.47-50.69c-12.57-3.65-25.6-5.51-38.69-5.52Z"/>
  <path fill="#000" fill-opacity=".2" d="M1843.91 1652h-1234v-78h1234v78Z"/>
  <path fill="#757575" fill-opacity=".2" d="M1843.91 1496h-1234v-78h1234v78Z"/>
  <path fill="#A4A4A4" fill-opacity=".2" d="M1843.91 1418h-1234v-78h1234v78Z"/>
  <path fill="#EAEAEA" fill-opacity=".2" d="M1843.91 1340h-1234v-78h1234v78Z"/>
  <path fill="#464646" fill-opacity=".2" d="M1843.91 1574h-1234v-78h1234v78Z"/>
  <g clip-path="url(#a)">
    <path fill="#000" fill-opacity=".2" d="M719.669 41.937c-43.53 22.895-80.809 54.217-109.146 91.705l1.88 170.45 1.969 178.394c45.899 58.802 113.155 101.434 190.115 120.509 43.857 10.836 89.632 13.713 134.644 8.463 45.013-5.25 88.359-18.521 127.499-39.037 39.11-20.567 73.22-47.959 100.34-80.575 27.11-32.616 46.68-69.8 57.57-109.375 14.59-53.105 13.07-108.829-4.38-161.388-7.82-23.883-18.83-46.838-32.79-68.364-37.61-57.478-94.91-102.523-163.29-128.35C955.714-1.459 879.976-6.673 808.277 9.513c-31.108 7.003-60.937 17.918-88.608 32.424Z"/>
    <path fill="#EAEAEA" fill-opacity=".2" d="M1215.77 209.278 640.18 511.457c33.825 33.855 75.532 60.598 122.126 78.309l470.024-246.758c5.2-41.044 1.12-82.653-11.99-122.337a291.507 291.507 0 0 0-4.57-11.393Z" opacity=".3"/>
    <path fill="#EAEAEA" fill-opacity=".2" d="M1146.72 103.104 612.758 383.43l1.092 98.951a318.769 318.769 0 0 0 26.327 29.081l575.583-302.179c-7.24-19.818-16.71-38.933-28.25-57.051-11.75-17.545-25.42-34.002-40.79-49.128Z" opacity=".5"/>
    <path fill="#EAEAEA" fill-opacity=".2" d="M1024.41 24.891 611.191 241.826l.683 61.955.879 79.649 533.957-280.326c-33.88-33.839-75.66-60.55-122.3-78.213Z" opacity=".7"/>
    <path fill="#EAEAEA" fill-opacity=".2" d="M719.272 41.322c-43.58 22.921-80.903 54.28-109.272 91.811l1.199 108.692L1024.41 24.891C955.994-1.426 880.022-7.053 807.984 8.861c-31.144 7.01-61.009 17.938-88.712 32.461Z"/>
  </g>
  <path fill="#464646" fill-opacity=".2" d="M2211 1259.19h-736.14l184.04-322.595L1842.93 614l184.04 322.595L2211 1259.19Z"/>
  <path fill="#757575" fill-opacity=".2" d="M2141.37 1219.4h-595.45l148.86-260.778 148.86-260.776 148.87 260.776 148.86 260.778Z"/>
  <path fill="#A4A4A4" fill-opacity=".2" d="M2058.94 1168.24h-432.02l108.01-189.012 108-189.009 108.01 189.009 108 189.012Z"/>
  <path fill="#EAEAEA" fill-opacity=".2" d="M2003.52 1134.13h-318.33l79.58-139.269 79.58-139.27 79.59 139.27 79.58 139.269Z"/>
  <path fill="#464646" fill-opacity=".2" d="M1474.14 1259.19H738l184.035-322.595L1106.07 614l184.04 322.595 184.03 322.595Z"/>
  <path fill="#757575" fill-opacity=".2" d="M1404.51 1219.4H809.055l148.862-260.778 148.863-260.776 148.86 260.776 148.87 260.778Z"/>
  <path fill="#A4A4A4" fill-opacity=".2" d="M1322.08 1168.24H890.059l108.005-189.012 108.006-189.009 108 189.009 108.01 189.012Z"/>
  <path fill="#EAEAEA" fill-opacity=".2" d="M1266.66 1134.13H948.324l79.586-139.269 79.58-139.27 79.58 139.27 79.59 139.269Z"/>
  <path fill="#464646" fill-opacity=".2" d="M1106.43 614h736.14l-184.03 322.595-184.04 322.595-184.03-322.595L1106.43 614Z"/>
  <path fill="#757575" fill-opacity=".2" d="M1176.07 653.792h595.45l-148.86 260.776-148.87 260.772-148.86-260.772-148.86-260.776Z"/>
  <path fill="#A4A4A4" fill-opacity=".2" d="M1258.49 704.952h432.03l-108.01 189.01-108.01 189.008-108-189.008-108.01-189.01Z"/>
  <path fill="#EAEAEA" fill-opacity=".2" d="M1313.92 739.059h318.33l-79.58 139.27-79.59 139.271-79.58-139.271-79.58-139.27Z"/>
  <path fill="#464646" fill-opacity=".2" d="M736.141 1262.19H0l184.035-322.595L368.071 617l184.035 322.595 184.035 322.595Z"/>
  <path fill="#757575" fill-opacity=".2" d="M666.505 1222.4H71.055l148.862-260.778L368.78 700.846l148.863 260.776L666.505 1222.4Z"/>
  <path fill="#A4A4A4" fill-opacity=".2" d="M584.08 1171.24H152.059l108.005-189.012 108.005-189.009 108.006 189.009L584.08 1171.24Z"/>
  <path fill="#EAEAEA" fill-opacity=".2" d="M528.656 1137.13H210.324l79.583-139.269 79.583-139.27 79.583 139.27 79.583 139.269Z"/>
  <path fill="#464646" fill-opacity=".2" d="M368.433 617h736.137L920.539 939.595 736.504 1262.19 552.468 939.595 368.433 617Z"/>
  <path fill="#757575" fill-opacity=".2" d="M438.069 656.792h595.451L884.657 917.568 735.794 1178.34 586.932 917.568 438.069 656.792Z"/>
  <path fill="#A4A4A4" fill-opacity=".2" d="M520.494 707.952h432.022L844.51 896.962 736.505 1085.97 628.5 896.962l-108.006-189.01Z"/>
  <path fill="#EAEAEA" fill-opacity=".2" d="M575.918 742.059H894.25l-79.583 139.27-79.583 139.271-79.583-139.271-79.583-139.27Z"/>
  <defs>
    <clipPath id="a">
      <path fill="#fff" d="M0 0h624.518v614.008H0z" transform="translate(610)"/>
    </clipPath>
  </defs>
</svg>
