<?xml version="1.0" encoding="UTF-8" standalone="no"?>
<svg
   width="1556"
   height="458"
   fill="none"
   viewBox="0 0 1556 458"
   version="1.1"
   id="svg26"
   sodipodi:docname="Group35.svg"
   inkscape:version="1.1.2 (b8e25be833, 2022-02-05)"
   xmlns:inkscape="http://www.inkscape.org/namespaces/inkscape"
   xmlns:sodipodi="http://sodipodi.sourceforge.net/DTD/sodipodi-0.dtd"
   xmlns="http://www.w3.org/2000/svg"
   xmlns:svg="http://www.w3.org/2000/svg">
  <defs
     id="defs30" />
  <sodipodi:namedview
     id="namedview28"
     pagecolor="#505050"
     bordercolor="#eeeeee"
     borderopacity="1"
     inkscape:pageshadow="0"
     inkscape:pageopacity="0"
     inkscape:pagecheckerboard="0"
     showgrid="false"
     inkscape:zoom="0.9466581"
     inkscape:cx="778.52817"
     inkscape:cy="228.69925"
     inkscape:window-width="1920"
     inkscape:window-height="1001"
     inkscape:window-x="-9"
     inkscape:window-y="-9"
     inkscape:window-maximized="1"
     inkscape:current-layer="svg26" />
  <path
     fill="#464646"
     fill-opacity=".2"
     d="M518.981 4h517.999L907.481 231.001 777.981 458l-129.5-226.999-129.5-227ZM0 4h518L388.5 231.001 259 458 129.5 231.001 0 4.001Zm1037.98 0h518l-129.5 227.001L1296.98 458l-129.5-226.999-129.5-227Z"
     id="path2"
     style="opacity:0.2" />
  <path
     fill="#464646"
     fill-opacity=".2"
     d="M777.996 454h-518l129.5-227 129.5-227 129.5 227 129.5 227ZM1297 454H778.996l129.5-227L1038 0l129.5 227L1297 454Z"
     id="path4"
     style="opacity:0.2" />
  <path
     fill="#A4A4A4"
     fill-opacity=".2"
     d="M550.713 59.777h454.547L891.622 258.89 777.985 458 664.349 258.889 550.713 59.777Zm-518.985 0h454.545L372.637 258.89 259.001 458 145.365 258.889 31.728 59.777Zm1037.982 0h454.54L1410.62 258.89 1296.98 458l-113.63-199.111-113.64-199.112Z"
     id="path6"
     style="opacity:0.2" />
  <path
     fill="#A4A4A4"
     fill-opacity=".2"
     d="M746.268 398.223H291.723l113.636-199.111L518.995.001l113.636 199.111 113.637 199.111Zm519.002 0H810.723l113.636-199.111L1038 .001l113.63 199.111 113.64 199.111Z"
     id="path8"
     style="opacity:0.2" />
  <path
     fill="#757575"
     fill-opacity=".2"
     d="M550.715 59.777h391.09l-97.773 171.385-97.772 171.385-97.773-171.385-97.772-171.385Zm-518.985 0h391.09l-97.772 171.385-97.773 171.385-97.772-171.385L31.73 59.777Zm1037.98 0h391.09l-97.77 171.385-97.77 171.385-97.78-171.385-97.77-171.385Z"
     id="path10"
     style="opacity:0.2" />
  <path
     fill="#757575"
     fill-opacity=".2"
     d="M746.27 398.223H355.18l97.772-171.385 97.773-171.384 97.772 171.384 97.773 171.385Zm519 0H874.18l97.772-171.385 97.768-171.384 97.78 171.384 97.77 171.385Z"
     id="path12"
     style="opacity:0.2" />
  <path
     fill="#000"
     fill-opacity=".2"
     d="M616.112 59.6h325.826l-81.457 142.784-81.456 142.784-81.456-142.784-81.457-142.785Zm-518.984 0h325.825l-81.456 142.784-81.456 142.784-81.457-142.784L97.128 59.599Zm1037.982 0h325.82l-81.45 142.784-81.46 142.784-81.46-142.784-81.45-142.785ZM680.872 398.401H355.047l81.456-142.784 81.456-142.784 81.457 142.784 81.456 142.784Zm518.998 0H874.047l81.456-142.784 81.457-142.784 81.46 142.784 81.45 142.784Z"
     id="path14"
     style="opacity:0.2" />
  <path
     fill="#000"
     fill-opacity=".2"
     d="M762.907 282.634a138.889 138.889 0 0 0 59.516-13.452l38.569-67.029 40.367-70.155a139.417 139.417 0 0 0-39.165-86.142 139.085 139.085 0 0 0-45.434-30.947A138.891 138.891 0 0 0 762.907 4a138.884 138.884 0 0 0-53.853 10.909 139.079 139.079 0 0 0-45.435 30.947 139.38 139.38 0 0 0-35.604 64 139.55 139.55 0 0 0-4.195 33.461 139.468 139.468 0 0 0 27.918 83.7 139.088 139.088 0 0 0 72.524 50.106 138.846 138.846 0 0 0 38.645 5.511Zm-518.981 0a138.886 138.886 0 0 0 59.516-13.452l38.57-67.029 40.367-70.155a139.418 139.418 0 0 0-39.166-86.142 139.064 139.064 0 0 0-45.434-30.947A138.884 138.884 0 0 0 243.926 4a138.887 138.887 0 0 0-53.853 10.909 139.085 139.085 0 0 0-45.434 30.947 139.39 139.39 0 0 0-35.605 64 139.55 139.55 0 0 0-4.194 33.461 139.461 139.461 0 0 0 27.918 83.7 139.084 139.084 0 0 0 72.524 50.106 138.839 138.839 0 0 0 38.644 5.511Zm1037.984 0a138.886 138.886 0 0 0 59.51-13.452l38.57-67.029 40.37-70.155a139.39 139.39 0 0 0-39.17-86.142 139.047 139.047 0 0 0-45.43-30.947A138.903 138.903 0 0 0 1281.91 4c-18.5.014-36.81 3.722-53.86 10.909a139.152 139.152 0 0 0-45.43 30.947 139.4 139.4 0 0 0-35.61 64 139.798 139.798 0 0 0-4.19 33.461 139.47 139.47 0 0 0 27.92 83.7 139.082 139.082 0 0 0 72.52 50.106 138.865 138.865 0 0 0 38.65 5.511ZM534.07 175.366a138.9 138.9 0 0 0-59.516 13.452l-38.57 67.03-40.367 70.154a139.42 139.42 0 0 0 39.166 86.143 139.066 139.066 0 0 0 45.434 30.947A138.877 138.877 0 0 0 534.07 454a138.877 138.877 0 0 0 53.853-10.908 139.087 139.087 0 0 0 45.434-30.947 139.385 139.385 0 0 0 35.605-64 139.512 139.512 0 0 0 4.194-33.461 139.459 139.459 0 0 0-27.918-83.7 139.08 139.08 0 0 0-72.524-50.107 138.913 138.913 0 0 0-38.644-5.511Zm519 0a138.88 138.88 0 0 0-59.516 13.452l-38.57 67.03-40.367 70.154a139.42 139.42 0 0 0 39.166 86.143 139.066 139.066 0 0 0 45.434 30.947A138.884 138.884 0 0 0 1053.07 454c18.5-.013 36.8-3.721 53.85-10.908a139.09 139.09 0 0 0 45.44-30.947 139.385 139.385 0 0 0 35.6-64 139.317 139.317 0 0 0 4.2-33.461 139.533 139.533 0 0 0-27.92-83.7 139.104 139.104 0 0 0-72.53-50.107 138.816 138.816 0 0 0-38.64-5.511Z"
     id="path16"
     style="opacity:0.2" />
  <path
     fill="#EAEAEA"
     fill-opacity=".2"
     d="M626.844 115.373h272.101a139.591 139.591 0 0 0-24.952-55.687H651.795a139.569 139.569 0 0 0-23.94 50.293c-.373 1.791-.71 3.589-1.011 5.394Zm-518.981 0h272.102a139.593 139.593 0 0 0-24.953-55.687H132.815a139.571 139.571 0 0 0-23.941 50.293 140.655 140.655 0 0 0-1.011 5.394Zm1037.977 0h272.11a139.73 139.73 0 0 0-24.96-55.687H1170.8a139.656 139.656 0 0 0-23.95 50.293c-.37 1.791-.7 3.589-1.01 5.394ZM670.133 342.627H398.031a139.593 139.593 0 0 0 24.953 55.687h222.197a139.577 139.577 0 0 0 23.941-50.292c.372-1.791.709-3.59 1.011-5.395Zm518.997 0H917.031a139.593 139.593 0 0 0 24.953 55.687h222.196a139.476 139.476 0 0 0 23.94-50.292c.37-1.791.71-3.59 1.01-5.395Z"
     opacity=".3"
     id="path18"
     style="opacity:0.2" />
  <path
     fill="#EAEAEA"
     fill-opacity=".2"
     d="M626.709 171.06h252.424l22.39-38.913a139.457 139.457 0 0 0-2.571-16.775H626.851a139.695 139.695 0 0 0-3.189 28.106 139.754 139.754 0 0 0 3.047 27.582Zm-518.98 0h252.423l22.391-38.913a139.657 139.657 0 0 0-2.571-16.775H107.87a139.768 139.768 0 0 0-3.189 28.106 139.68 139.68 0 0 0 3.048 27.582Zm1037.981 0h252.42l22.39-38.913a137.68 137.68 0 0 0-2.57-16.775h-272.1a139.84 139.84 0 0 0-3.19 28.106c.1 9.273 1.12 18.512 3.05 27.582ZM670.271 286.941H417.848l-22.391 38.913a139.672 139.672 0 0 0 2.571 16.774H670.13a139.751 139.751 0 0 0 3.189-28.106 139.67 139.67 0 0 0-3.048-27.581Zm518.999 0H936.848l-22.391 38.913a139.672 139.672 0 0 0 2.571 16.774h272.102a139.824 139.824 0 0 0 3.19-28.106c-.1-9.272-1.12-18.512-3.05-27.581Z"
     opacity=".5"
     id="path20"
     style="opacity:0.2" />
  <path
     fill="#EAEAEA"
     fill-opacity=".2"
     d="M651.748 226.746H847.09l14.02-24.364 18.023-31.322H626.709a139.586 139.586 0 0 0 25.039 55.686Zm-518.98 0H328.11l14.019-24.364 18.023-31.322H107.729a139.586 139.586 0 0 0 25.039 55.686Zm1037.982 0h195.34l14.02-24.364 18.02-31.322h-252.42a139.643 139.643 0 0 0 25.04 55.686Zm-525.518 4.508H449.89l-14.019 24.364-18.023 31.323h252.423a139.596 139.596 0 0 0-25.039-55.687Zm518.998 0H968.89l-14.019 24.364-18.023 31.323h252.422a139.653 139.653 0 0 0-25.04-55.687Z"
     opacity=".7"
     id="path22"
     style="opacity:0.2" />
  <path
     fill="#EAEAEA"
     fill-opacity=".2"
     d="M762.906 282.957a139.05 139.05 0 0 0 59.585-13.467l24.595-42.744H651.744a139.25 139.25 0 0 0 72.472 50.694 139.056 139.056 0 0 0 38.69 5.517Zm-518.981 0a139.055 139.055 0 0 0 59.586-13.467l24.594-42.744H132.763a139.253 139.253 0 0 0 72.473 50.694 139.044 139.044 0 0 0 38.689 5.517Zm1037.985 0a139.029 139.029 0 0 0 59.58-13.467l24.6-42.744h-195.35a139.243 139.243 0 0 0 72.48 50.694 138.987 138.987 0 0 0 38.69 5.517ZM534.071 175.043a139.063 139.063 0 0 0-59.585 13.468l-24.595 42.743h195.342a139.251 139.251 0 0 0-72.473-50.693 139.045 139.045 0 0 0-38.689-5.518Zm518.999 0a139.075 139.075 0 0 0-59.584 13.468l-24.595 42.743h195.339a139.255 139.255 0 0 0-72.47-50.693 139.041 139.041 0 0 0-38.69-5.518Z"
     id="path24"
     style="opacity:0.2" />
</svg>
