<svg xmlns="http://www.w3.org/2000/svg" width="518" height="454" fill="none" viewBox="0 0 518 454">
  <path fill="#464646" d="M518 454H0l129.5-227L259 0l129.5 227L518 454Z"/>
  <path fill="#A4A4A4" d="M486.272 398.223H31.727l113.636-199.111L258.999.001l113.636 199.111 113.637 199.111Z"/>
  <path fill="#757575" d="M486.274 398.223H95.184l97.772-171.385 97.773-171.384 97.772 171.384 97.773 171.385Z"/>
  <path fill="#000" d="M420.876 398.401H95.051l81.456-142.784 81.456-142.784 81.457 142.784 81.456 142.784Z"/>
  <path fill="#000" d="M274.074 175.366a138.9 138.9 0 0 0-59.516 13.452l-38.57 67.03-40.367 70.154a139.42 139.42 0 0 0 39.166 86.143 139.066 139.066 0 0 0 45.434 30.947A138.877 138.877 0 0 0 274.074 454a138.88 138.88 0 0 0 53.853-10.908 139.087 139.087 0 0 0 45.434-30.947 139.394 139.394 0 0 0 35.605-64 139.512 139.512 0 0 0 4.194-33.461 139.457 139.457 0 0 0-27.918-83.7 139.08 139.08 0 0 0-72.524-50.107 138.913 138.913 0 0 0-38.644-5.511Z"/>
  <path fill="#EAEAEA" d="M410.137 342.627H138.035a139.593 139.593 0 0 0 24.953 55.687h222.197a139.577 139.577 0 0 0 23.941-50.292c.372-1.791.709-3.59 1.011-5.395Z" opacity=".3"/>
  <path fill="#EAEAEA" d="M410.275 286.941H157.852l-22.391 38.913a139.672 139.672 0 0 0 2.571 16.774h272.102a139.751 139.751 0 0 0 3.189-28.106 139.67 139.67 0 0 0-3.048-27.581Z" opacity=".5"/>
  <path fill="#EAEAEA" d="M385.236 231.254H189.894l-14.019 24.364-18.023 31.323h252.423a139.596 139.596 0 0 0-25.039-55.687Z" opacity=".7"/>
  <path fill="#EAEAEA" d="M274.075 175.043a139.07 139.07 0 0 0-59.586 13.468l-24.594 42.743h195.342a139.251 139.251 0 0 0-72.473-50.693 139.045 139.045 0 0 0-38.689-5.518Z"/>
</svg>
