<?xml version="1.0" encoding="UTF-8" standalone="no"?>
<!-- Created with Inkscape (http://www.inkscape.org/) -->

<svg
   width="32"
   height="32"
   viewBox="0 0 32 32"
   version="1.1"
   id="svg5"
   inkscape:version="1.1.2 (b8e25be833, 2022-02-05)"
   sodipodi:docname="nft.svg"
   xmlns:inkscape="http://www.inkscape.org/namespaces/inkscape"
   xmlns:sodipodi="http://sodipodi.sourceforge.net/DTD/sodipodi-0.dtd"
   xmlns="http://www.w3.org/2000/svg"
   xmlns:svg="http://www.w3.org/2000/svg">
  <sodipodi:namedview
     id="namedview7"
     pagecolor="#505050"
     bordercolor="#eeeeee"
     borderopacity="1"
     inkscape:pageshadow="0"
     inkscape:pageopacity="0"
     inkscape:pagecheckerboard="0"
     inkscape:document-units="px"
     showgrid="false"
     inkscape:zoom="15.887805"
     inkscape:cx="16.112987"
     inkscape:cy="15.452103"
     inkscape:window-width="1920"
     inkscape:window-height="1001"
     inkscape:window-x="-9"
     inkscape:window-y="-9"
     inkscape:window-maximized="1"
     inkscape:current-layer="layer1" />
  <defs
     id="defs2">
    <style
       type="text/css"
       id="style824">
   <![CDATA[
    .fil0 {fill:#212529}
   ]]>
  </style>
  </defs>
  <g
     inkscape:label="Camada 1"
     inkscape:groupmode="layer"
     id="layer1">
    <g
       style="clip-rule:evenodd;fill-rule:evenodd;stroke-width:29.3427;image-rendering:optimizeQuality;shape-rendering:geometricPrecision;text-rendering:geometricPrecision"
       id="g852"
       transform="matrix(0.00128806,0,0,0.00128806,2.5191222,-3.1400708)"
       inkscape:export-filename="C:\Users\RUGEMTUGEM\g852.png"
       inkscape:export-xdpi="72"
       inkscape:export-ydpi="72">
      <g
         id="Camada_x0020_1"
         inkscape:label="Camada 1"
         inkscape:groupmode="layer"
         style="stroke-width:29.3427">
  <metadata
   id="CorelCorpID_0Corel-Layer" />

  <path
   class="fil0"
   d="m 1109.08,9440.53 c 382.24,-193.11 801.28,-462.67 1183.29,-676.66 913.69,-511.84 8081.54,-4742.36 8223.61,-4722.62 80.31,11.15 2078.55,1195.76 2346.1,1346.84 641.06,361.98 6986.89,3992.26 7011.95,4098.15 l -6.73,10790.43 -7054.44,4088.45 c -264.77,150.23 -2240.46,1341.11 -2343.98,1327.16 -109.71,-14.79 -4207.55,-2430.41 -4693.94,-2703.41 -793.55,-445.39 -1569.95,-891.39 -2348.09,-1356.76 -136.57,-81.67 -2292.49,-1266.94 -2317.89,-1386.15 z m -1270.09,-730.4 v 12347.22 c 132.92,35.49 2383.54,1347.1 2674.69,1523.36 l 982.35,569.87 c 140.24,70.93 218.51,132.38 335,194.17 l 5991.57,3462.88 c 846.12,457.56 453.65,493.2 1307.1,1.82 l 5325.12,-3070.99 c 225.23,-121.81 442.64,-264.95 670.28,-388.05 l 1338.53,-778.14 c 218.5,-131.76 444.14,-257.38 670.47,-387.86 107.87,-62.19 223.43,-117.98 340.11,-189.07 l 1672.55,-973.27 V 8674.85 c -142.61,-33.22 -521.1,-274.54 -663.26,-359.79 -229.94,-137.88 -441.13,-249.93 -670.51,-387.82 L 15500.56,5431.06 c -120.57,-68.98 -209.44,-117.15 -335.62,-193.55 -1263.33,-765.01 -2721.55,-1537.71 -4003.81,-2310.92 -217.49,-131.14 -463.21,-252.77 -668.25,-390.07 -616.8,413.02 -2458.85,1410.61 -3300.71,1920.4 -118.58,71.8 -227.17,132.51 -334.73,194.44 -115.74,66.64 -214.01,126.63 -339.09,190.07 l -489.12,287 c -25.13,15.09 -73.69,39.81 -91.58,49.53 z"
   id="path829"
   style="stroke-width:29.3427" />

  <path
   class="fil0"
   d="m 3334.43,14053.72 c 117.12,225.59 469.98,1744.74 582.68,2150.02 401.5,1443.81 735.5,2868.4 1136.53,4296.09 l 209.7,813.55 c 48.3,152.33 20.52,101.92 141.21,175.37 215.91,131.39 644.31,399.61 854.76,486.4 l -0.88,-13943.14 c -335.67,148.3 -984.14,597.32 -1371.28,783.57 4.06,364.9 35.57,6037.77 -11.53,6292.9 L 3374.27,9985.8 c -119.94,42.86 -1091.08,604.43 -1154.75,671.13 l -3.3,8978.7 c 163.4,115.89 371.69,222.5 550.01,329.02 165.56,98.9 390.67,244.02 564.08,313.01 z"
   id="path831"
   style="stroke-width:29.3427" />

  <path
   class="fil0"
   d="m 14996.56,8033.1 c -113.83,321.95 -525.38,756.83 -651.21,1097.1 188.55,106.39 1650.02,1008.86 1672.78,1132.15 l 3.24,11226.03 c 250.83,-79 1039.03,-625.83 1384.56,-771.88 l 0.9,-9721.28 c 289.97,161.47 1605.83,1118.91 1790.84,1198.31 l -5.09,-1528.91 L 17094.09,9340.6 C 16728.55,9117.58 15223.43,8120.95 14996.56,8033.1 Z"
   id="path833"
   style="stroke-width:29.3427" />

  <path
   class="fil0"
   d="m 8585.67,23351.41 c 115.29,74.56 68.44,80.99 71.94,-106.84 l -3.13,-7620.82 4741.69,2.78 1.22,-1569.49 -4728.26,1.45 c -47.23,-275.94 -13.12,-4026.19 -12.77,-4642.81 0.12,-212.26 -53.85,-1344.66 35.14,-1528.26 -13.14,8.22 -53.41,-35.75 -75.56,150.07 l -12,1730.97 c -1.6,196.13 25.05,472.02 -31.31,648.73 -30.57,95.86 -31.95,53.7 -34.32,53.25 -28.82,-5.39 85.79,-88.7 -92.69,10.54 -198.78,110.52 -14.04,78.09 -147.98,86.02 -5.62,0.33 -65.14,17.75 -73.08,20.66 l -192.49,105.6 c -104.96,64.53 -41.45,56.75 -90.12,102.92 -159.98,151.78 -16.72,-13.43 -194.41,80.56 -254.06,134.38 13.96,115.02 -170.8,159.8 l -61.64,19.23 c -5.64,3.36 -15.46,8.92 -20.87,13.23 l -50.44,60.68 c -4.29,8.05 -8.09,17.12 -11.58,26.04 l -29.31,1576.07 c -2.61,503.17 -37.49,5585.71 13.87,5855.03 27.04,141.8 138.14,189.7 239.79,264.44 l 445.18,295.16 c 6.16,4.24 13.9,11.04 20.17,15.27 l 476.69,218.29 z"
   id="path835"
   style="stroke-width:29.3427" />

  <path
   class="fil0"
   d="m 8691.5,7887.42 c 142.06,-23.74 752.36,-390.13 922.48,-479.93 279.13,-147.36 640.57,-385.63 914.18,-496.59 79.43,-1.98 2895.94,1773.56 3151.77,1864.09 l 747.59,-1150.03 -959.32,-585.15 c -334,-190.08 -649.9,-384.33 -975.3,-576.2 L 10528.16,5320.15 c -308.14,145.65 -1219.01,724.49 -1599.71,943.36 -275.36,158.31 -536.2,316.76 -798.81,471.18 -109.46,64.37 -717.97,376.53 -740.01,493.77 l 7.89,15374.19 1188.15,748.76 12.93,-3971.43 -476.69,-218.29 c -6.27,-4.23 -14.01,-11.03 -20.17,-15.27 l -445.18,-295.16 c -101.65,-74.74 -212.75,-122.64 -239.79,-264.44 -51.36,-269.32 -16.48,-5351.86 -13.87,-5855.03 l 29.31,-1576.07 c 3.49,-8.92 7.29,-17.99 11.58,-26.04 l 50.44,-60.68 c 5.41,-4.31 15.23,-9.87 20.87,-13.23 l 61.64,-19.23 c 184.76,-44.78 -83.26,-25.42 170.8,-159.8 177.69,-93.99 34.43,71.22 194.41,-80.56 48.67,-46.17 -14.84,-38.39 90.12,-102.92 l 192.49,-105.6 c 7.94,-2.91 67.46,-20.33 73.08,-20.66 133.94,-7.93 -50.8,24.5 147.98,-86.02 178.48,-99.24 63.87,-15.93 92.69,-10.54 2.37,0.45 3.75,42.61 34.32,-53.25 56.36,-176.71 29.71,-452.6 31.31,-648.73 l 12,-1730.97 c 22.15,-185.82 62.42,-141.85 75.56,-150.07 z"
   id="path837"
   style="stroke-width:29.3427" />

 </g>
    </g>
  </g>
</svg>
